<svg xmlns="http://www.w3.org/2000/svg" viewBox="0 0 1600 900" width="1600" height="900" role="img" aria-label="A one square metre paper sample on a scale, showing GSM as grams per square metre">
<title>A one square metre paper sample on a scale, showing GSM as grams per square metre</title>
<defs><filter id="soft" x="-20%" y="-20%" width="140%" height="140%"><feGaussianBlur stdDeviation="14"/></filter><linearGradient id="bg" x1="0" y1="0" x2="0" y2="1"><stop offset="0" stop-color="#FBF8F3"/><stop offset="1" stop-color="#E9E1D3"/></linearGradient></defs>
<rect width="1600" height="900" fill="url(#bg)"/>
<rect x="100" y="130" width="1400" height="640" rx="22" fill="#FBF8F3" stroke="#DCD1BD" stroke-width="2"/><rect x="220" y="260" width="360" height="360" fill="#D9BB91" stroke="#8A6440" stroke-width="4"/><g stroke="#8A6440" stroke-width="2" opacity="0.18"><line x1="220" y1="260" x2="220" y2="620"/><line x1="250" y1="260" x2="250" y2="620"/><line x1="280" y1="260" x2="280" y2="620"/><line x1="310" y1="260" x2="310" y2="620"/><line x1="340" y1="260" x2="340" y2="620"/><line x1="370" y1="260" x2="370" y2="620"/><line x1="400" y1="260" x2="400" y2="620"/><line x1="430" y1="260" x2="430" y2="620"/><line x1="460" y1="260" x2="460" y2="620"/><line x1="490" y1="260" x2="490" y2="620"/><line x1="520" y1="260" x2="520" y2="620"/><line x1="550" y1="260" x2="550" y2="620"/></g><g stroke="#1B6A2F" stroke-width="5" stroke-linecap="round" stroke-linejoin="round" fill="none"><line x1="220" y1="662" x2="580" y2="662"/><polyline points="565.5928463623571,668.9594485457797 580,662 565.5928463623571,655.0405514542203"/></g><g stroke="#1B6A2F" stroke-width="5" stroke-linecap="round" stroke-linejoin="round" fill="none"><line x1="580" y1="662" x2="220" y2="662"/><polyline points="234.40715363764284,655.0405514542203 220,662 234.40715363764284,668.9594485457797"/></g><text x="400" y="722" font-family="Satoshi, 'Segoe UI', Arial, sans-serif" font-size="38" font-weight="700" fill="#1B6A2F" text-anchor="middle">1 m</text><text x="400" y="450" font-family="Satoshi, 'Segoe UI', Arial, sans-serif" font-size="64" font-weight="700" fill="#5E4228" text-anchor="middle">1 m²</text><text x="700" y="460" font-family="Satoshi, 'Segoe UI', Arial, sans-serif" font-size="90" font-weight="500" fill="#4A5A50" text-anchor="middle">→</text><rect x="820" y="560" width="300" height="40" rx="8" fill="#4A5A50"/><rect x="860" y="400" width="220" height="160" rx="16" fill="#17231C"/><rect x="884" y="424" width="172" height="76" rx="8" fill="#BFE3C8"/><text x="970" y="484" font-family="Satoshi, 'Segoe UI', Arial, sans-serif" font-size="54" font-weight="700" fill="#17231C" text-anchor="middle">g</text><rect x="860" y="360" width="220" height="14" rx="7" fill="#C49A6C"/><text x="1290" y="400" font-family="Satoshi, 'Segoe UI', Arial, sans-serif" font-size="96" font-weight="700" fill="#1B6A2F" text-anchor="middle">GSM</text><text x="1290" y="470" font-family="Satoshi, 'Segoe UI', Arial, sans-serif" font-size="38" font-weight="500" fill="#4A5A50" text-anchor="middle">= grams per m²</text>
</svg>
