<svg xmlns="http://www.w3.org/2000/svg" viewBox="0 0 1600 900" width="1600" height="900" role="img" aria-label="Four common corrugated box styles side by side">
<title>Four common corrugated box styles side by side</title>
<defs><filter id="soft" x="-20%" y="-20%" width="140%" height="140%"><feGaussianBlur stdDeviation="14"/></filter><linearGradient id="bg" x1="0" y1="0" x2="0" y2="1"><stop offset="0" stop-color="#FBF8F3"/><stop offset="1" stop-color="#E9E1D3"/></linearGradient></defs>
<rect width="1600" height="900" fill="url(#bg)"/>
<polygon points="254,439.3 415.86,532.75 281.28,610.45 119.42,517" fill="#17231C" opacity="0.16" filter="url(#soft)"/><polygon points="144.88,517 281.28,595.75 281.28,417.25 144.88,338.5" fill="#C49A6C" stroke="#8A6440" stroke-width="1.2" stroke-linejoin="round"/><polygon points="390.4,532.75 281.28,595.75 281.28,417.25 390.4,354.25" fill="#A97F52" stroke="#8A6440" stroke-width="1.2" stroke-linejoin="round"/><polygon points="254,275.5 390.4,354.25 281.28,417.25 144.88,338.5" fill="#D9BB91" stroke="#8A6440" stroke-width="1.2" stroke-linejoin="round"/><line x1="199.44" y1="307" x2="335.84" y2="385.75" stroke="#8A6440" stroke-width="1.08" stroke-linecap="round" opacity="0.7"/><polygon points="209.26,301.33 345.66,380.08 326.02,391.42 189.62,312.67" fill="#E8D5B3" stroke="#C49A6C" stroke-width="0.7" stroke-linejoin="round" opacity="0.92"/><polygon points="345.66,380.08 326.02,391.42 326.02,430.69 345.66,419.35" fill="#E8D5B3" stroke="#C49A6C" stroke-width="0.7" stroke-linejoin="round" opacity="0.92"/><line x1="158.52" y1="520.67" x2="158.52" y2="350.58" stroke="#8A6440" stroke-width="0.7" stroke-linecap="round" opacity="0.18"/><line x1="172.16" y1="528.55" x2="172.16" y2="358.45" stroke="#8A6440" stroke-width="0.7" stroke-linecap="round" opacity="0.18"/><line x1="185.8" y1="536.42" x2="185.8" y2="366.33" stroke="#8A6440" stroke-width="0.7" stroke-linecap="round" opacity="0.18"/><line x1="199.44" y1="544.3" x2="199.44" y2="374.2" stroke="#8A6440" stroke-width="0.7" stroke-linecap="round" opacity="0.18"/><line x1="213.08" y1="552.17" x2="213.08" y2="382.08" stroke="#8A6440" stroke-width="0.7" stroke-linecap="round" opacity="0.18"/><line x1="226.72" y1="560.05" x2="226.72" y2="389.95" stroke="#8A6440" stroke-width="0.7" stroke-linecap="round" opacity="0.18"/><line x1="240.36" y1="567.92" x2="240.36" y2="397.83" stroke="#8A6440" stroke-width="0.7" stroke-linecap="round" opacity="0.18"/><line x1="254" y1="575.8" x2="254" y2="405.7" stroke="#8A6440" stroke-width="0.7" stroke-linecap="round" opacity="0.18"/><line x1="267.64" y1="583.67" x2="267.64" y2="413.58" stroke="#8A6440" stroke-width="0.7" stroke-linecap="round" opacity="0.18"/><line x1="376.76" y1="536.42" x2="376.76" y2="366.33" stroke="#8A6440" stroke-width="0.7" stroke-linecap="round" opacity="0.18"/><line x1="363.12" y1="544.3" x2="363.12" y2="374.2" stroke="#8A6440" stroke-width="0.7" stroke-linecap="round" opacity="0.18"/><line x1="349.48" y1="552.17" x2="349.48" y2="382.08" stroke="#8A6440" stroke-width="0.7" stroke-linecap="round" opacity="0.18"/><line x1="335.84" y1="560.05" x2="335.84" y2="389.95" stroke="#8A6440" stroke-width="0.7" stroke-linecap="round" opacity="0.18"/><line x1="322.2" y1="567.92" x2="322.2" y2="397.83" stroke="#8A6440" stroke-width="0.7" stroke-linecap="round" opacity="0.18"/><line x1="308.56" y1="575.8" x2="308.56" y2="405.7" stroke="#8A6440" stroke-width="0.7" stroke-linecap="round" opacity="0.18"/><line x1="294.92" y1="583.67" x2="294.92" y2="413.58" stroke="#8A6440" stroke-width="0.7" stroke-linecap="round" opacity="0.18"/><polygon points="617.73,439.3 815.96,553.75 654.1,647.2 455.87,532.75" fill="#17231C" opacity="0.16" filter="url(#soft)"/><polygon points="481.33,532.75 654.1,632.5 654.1,582.1 481.33,482.35" fill="#C49A6C" stroke="#8A6440" stroke-width="1.2" stroke-linejoin="round"/><polygon points="790.5,553.75 654.1,632.5 654.1,582.1 790.5,503.35" fill="#A97F52" stroke="#8A6440" stroke-width="1.2" stroke-linejoin="round"/><polygon points="617.73,403.6 790.5,503.35 654.1,582.1 481.33,482.35" fill="#D9BB91" stroke="#8A6440" stroke-width="1.2" stroke-linejoin="round"/><line x1="498.61" y1="538.53" x2="498.61" y2="496.53" stroke="#8A6440" stroke-width="0.7" stroke-linecap="round" opacity="0.18"/><line x1="515.89" y1="548.5" x2="515.89" y2="506.5" stroke="#8A6440" stroke-width="0.7" stroke-linecap="round" opacity="0.18"/><line x1="533.16" y1="558.47" x2="533.16" y2="516.47" stroke="#8A6440" stroke-width="0.7" stroke-linecap="round" opacity="0.18"/><line x1="550.44" y1="568.45" x2="550.44" y2="526.45" stroke="#8A6440" stroke-width="0.7" stroke-linecap="round" opacity="0.18"/><line x1="567.72" y1="578.42" x2="567.72" y2="536.42" stroke="#8A6440" stroke-width="0.7" stroke-linecap="round" opacity="0.18"/><line x1="584.99" y1="588.4" x2="584.99" y2="546.4" stroke="#8A6440" stroke-width="0.7" stroke-linecap="round" opacity="0.18"/><line x1="602.27" y1="598.38" x2="602.27" y2="556.38" stroke="#8A6440" stroke-width="0.7" stroke-linecap="round" opacity="0.18"/><line x1="619.55" y1="608.35" x2="619.55" y2="566.35" stroke="#8A6440" stroke-width="0.7" stroke-linecap="round" opacity="0.18"/><line x1="636.83" y1="618.32" x2="636.83" y2="576.32" stroke="#8A6440" stroke-width="0.7" stroke-linecap="round" opacity="0.18"/><line x1="773.45" y1="559.39" x2="773.45" y2="517.39" stroke="#8A6440" stroke-width="0.7" stroke-linecap="round" opacity="0.18"/><line x1="756.4" y1="569.24" x2="756.4" y2="527.24" stroke="#8A6440" stroke-width="0.7" stroke-linecap="round" opacity="0.18"/><line x1="739.35" y1="579.08" x2="739.35" y2="537.08" stroke="#8A6440" stroke-width="0.7" stroke-linecap="round" opacity="0.18"/><line x1="722.3" y1="588.92" x2="722.3" y2="546.92" stroke="#8A6440" stroke-width="0.7" stroke-linecap="round" opacity="0.18"/><line x1="705.25" y1="598.77" x2="705.25" y2="556.77" stroke="#8A6440" stroke-width="0.7" stroke-linecap="round" opacity="0.18"/><line x1="688.2" y1="608.61" x2="688.2" y2="566.61" stroke="#8A6440" stroke-width="0.7" stroke-linecap="round" opacity="0.18"/><line x1="671.15" y1="618.46" x2="671.15" y2="576.46" stroke="#8A6440" stroke-width="0.7" stroke-linecap="round" opacity="0.18"/><polygon points="981.46,439.3 1143.32,532.75 981.46,626.2 819.6,532.75" fill="#17231C" opacity="0.16" filter="url(#soft)"/><polygon points="845.06,532.75 981.46,611.5 981.46,454 845.06,375.25" fill="#23803A" stroke="#1B6A2F" stroke-width="1.2" stroke-linejoin="round"/><polygon points="1117.86,532.75 981.46,611.5 981.46,454 1117.86,375.25" fill="#1B6A2F" stroke="#1B6A2F" stroke-width="1.2" stroke-linejoin="round"/><polygon points="981.46,296.5 1117.86,375.25 981.46,454 845.06,375.25" fill="#2E9B47" stroke="#1B6A2F" stroke-width="1.2" stroke-linejoin="round"/><line x1="858.7" y1="536.42" x2="858.7" y2="387.33" stroke="#1B6A2F" stroke-width="0.7" stroke-linecap="round" opacity="0.18"/><line x1="872.34" y1="544.3" x2="872.34" y2="395.2" stroke="#1B6A2F" stroke-width="0.7" stroke-linecap="round" opacity="0.18"/><line x1="885.98" y1="552.17" x2="885.98" y2="403.08" stroke="#1B6A2F" stroke-width="0.7" stroke-linecap="round" opacity="0.18"/><line x1="899.62" y1="560.05" x2="899.62" y2="410.95" stroke="#1B6A2F" stroke-width="0.7" stroke-linecap="round" opacity="0.18"/><line x1="913.26" y1="567.92" x2="913.26" y2="418.83" stroke="#1B6A2F" stroke-width="0.7" stroke-linecap="round" opacity="0.18"/><line x1="926.9" y1="575.8" x2="926.9" y2="426.7" stroke="#1B6A2F" stroke-width="0.7" stroke-linecap="round" opacity="0.18"/><line x1="940.54" y1="583.67" x2="940.54" y2="434.58" stroke="#1B6A2F" stroke-width="0.7" stroke-linecap="round" opacity="0.18"/><line x1="954.18" y1="591.55" x2="954.18" y2="442.45" stroke="#1B6A2F" stroke-width="0.7" stroke-linecap="round" opacity="0.18"/><line x1="967.82" y1="599.42" x2="967.82" y2="450.33" stroke="#1B6A2F" stroke-width="0.7" stroke-linecap="round" opacity="0.18"/><line x1="1104.22" y1="536.42" x2="1104.22" y2="387.33" stroke="#1B6A2F" stroke-width="0.7" stroke-linecap="round" opacity="0.18"/><line x1="1090.58" y1="544.3" x2="1090.58" y2="395.2" stroke="#1B6A2F" stroke-width="0.7" stroke-linecap="round" opacity="0.18"/><line x1="1076.94" y1="552.17" x2="1076.94" y2="403.08" stroke="#1B6A2F" stroke-width="0.7" stroke-linecap="round" opacity="0.18"/><line x1="1063.3" y1="560.05" x2="1063.3" y2="410.95" stroke="#1B6A2F" stroke-width="0.7" stroke-linecap="round" opacity="0.18"/><line x1="1049.66" y1="567.92" x2="1049.66" y2="418.83" stroke="#1B6A2F" stroke-width="0.7" stroke-linecap="round" opacity="0.18"/><line x1="1036.02" y1="575.8" x2="1036.02" y2="426.7" stroke="#1B6A2F" stroke-width="0.7" stroke-linecap="round" opacity="0.18"/><line x1="1022.38" y1="583.67" x2="1022.38" y2="434.58" stroke="#1B6A2F" stroke-width="0.7" stroke-linecap="round" opacity="0.18"/><line x1="1008.74" y1="591.55" x2="1008.74" y2="442.45" stroke="#1B6A2F" stroke-width="0.7" stroke-linecap="round" opacity="0.18"/><line x1="995.1" y1="599.42" x2="995.1" y2="450.33" stroke="#1B6A2F" stroke-width="0.7" stroke-linecap="round" opacity="0.18"/><polygon points="1345.19,439.3 1570.71,569.5 1408.84,662.95 1183.33,532.75" fill="#17231C" opacity="0.16" filter="url(#soft)"/><polygon points="1208.79,532.75 1408.84,648.25 1408.84,553.75 1208.79,438.25" fill="#C49A6C" stroke="#8A6440" stroke-width="1.2" stroke-linejoin="round"/><polygon points="1545.24,569.5 1408.84,648.25 1408.84,553.75 1545.24,475" fill="#A97F52" stroke="#8A6440" stroke-width="1.2" stroke-linejoin="round"/><polygon points="1345.19,359.5 1545.24,475 1408.84,553.75 1208.79,438.25" fill="#D9BB91" stroke="#8A6440" stroke-width="1.2" stroke-linejoin="round"/><line x1="1276.99" y1="398.88" x2="1477.04" y2="514.38" stroke="#8A6440" stroke-width="1.08" stroke-linecap="round" opacity="0.7"/><polygon points="1289.27,391.79 1489.32,507.29 1464.77,521.46 1264.72,405.96" fill="#E8D5B3" stroke="#C49A6C" stroke-width="0.7" stroke-linejoin="round" opacity="0.92"/><polygon points="1489.32,507.29 1464.77,521.46 1464.77,542.25 1489.32,528.08" fill="#E8D5B3" stroke="#C49A6C" stroke-width="0.7" stroke-linejoin="round" opacity="0.92"/><line x1="1228.8" y1="540.1" x2="1228.8" y2="454" stroke="#8A6440" stroke-width="0.7" stroke-linecap="round" opacity="0.18"/><line x1="1248.8" y1="551.65" x2="1248.8" y2="465.55" stroke="#8A6440" stroke-width="0.7" stroke-linecap="round" opacity="0.18"/><line x1="1268.81" y1="563.2" x2="1268.81" y2="477.1" stroke="#8A6440" stroke-width="0.7" stroke-linecap="round" opacity="0.18"/><line x1="1288.81" y1="574.75" x2="1288.81" y2="488.65" stroke="#8A6440" stroke-width="0.7" stroke-linecap="round" opacity="0.18"/><line x1="1308.82" y1="586.3" x2="1308.82" y2="500.2" stroke="#8A6440" stroke-width="0.7" stroke-linecap="round" opacity="0.18"/><line x1="1328.82" y1="597.85" x2="1328.82" y2="511.75" stroke="#8A6440" stroke-width="0.7" stroke-linecap="round" opacity="0.18"/><line x1="1348.83" y1="609.4" x2="1348.83" y2="523.3" stroke="#8A6440" stroke-width="0.7" stroke-linecap="round" opacity="0.18"/><line x1="1368.83" y1="620.95" x2="1368.83" y2="534.85" stroke="#8A6440" stroke-width="0.7" stroke-linecap="round" opacity="0.18"/><line x1="1388.84" y1="632.5" x2="1388.84" y2="546.4" stroke="#8A6440" stroke-width="0.7" stroke-linecap="round" opacity="0.18"/><line x1="1525.76" y1="576.55" x2="1525.76" y2="490.45" stroke="#8A6440" stroke-width="0.7" stroke-linecap="round" opacity="0.18"/><line x1="1506.27" y1="587.8" x2="1506.27" y2="501.7" stroke="#8A6440" stroke-width="0.7" stroke-linecap="round" opacity="0.18"/><line x1="1486.79" y1="599.05" x2="1486.79" y2="512.95" stroke="#8A6440" stroke-width="0.7" stroke-linecap="round" opacity="0.18"/><line x1="1467.3" y1="610.3" x2="1467.3" y2="524.2" stroke="#8A6440" stroke-width="0.7" stroke-linecap="round" opacity="0.18"/><line x1="1447.82" y1="621.55" x2="1447.82" y2="535.45" stroke="#8A6440" stroke-width="0.7" stroke-linecap="round" opacity="0.18"/><line x1="1428.33" y1="632.8" x2="1428.33" y2="546.7" stroke="#8A6440" stroke-width="0.7" stroke-linecap="round" opacity="0.18"/>
</svg>
