<svg xmlns="http://www.w3.org/2000/svg" viewBox="0 0 1600 900" width="1600" height="900" role="img" aria-label="A carton with length, breadth and height arrows">
<title>A carton with length, breadth and height arrows</title>
<defs><filter id="soft" x="-20%" y="-20%" width="140%" height="140%"><feGaussianBlur stdDeviation="14"/></filter><linearGradient id="bg" x1="0" y1="0" x2="0" y2="1"><stop offset="0" stop-color="#FBF8F3"/><stop offset="1" stop-color="#E9E1D3"/></linearGradient></defs>
<rect width="1600" height="900" fill="url(#bg)"/>
<polygon points="767.4,409.66 1084.12,592.52 841.92,732.35 525.2,549.5" fill="#17231C" opacity="0.13" filter="url(#soft)"/><polygon points="581.09,549.5 841.92,700.08 841.92,517.23 581.09,366.64" fill="#C49A6C" stroke="#8A6440" stroke-width="1.2" stroke-linejoin="round"/><polygon points="1028.22,592.52 841.92,700.08 841.92,517.23 1028.22,409.66" fill="#A97F52" stroke="#8A6440" stroke-width="1.2" stroke-linejoin="round"/><polygon points="767.4,259.08 1028.22,409.66 841.92,517.23 581.09,366.64" fill="#D9BB91" stroke="#8A6440" stroke-width="1.2" stroke-linejoin="round"/><line x1="674.25" y1="312.86" x2="935.07" y2="463.45" stroke="#8A6440" stroke-width="1.08" stroke-linecap="round" opacity="0.7"/><polygon points="691.01,303.18 951.84,453.76 918.3,473.13 657.48,322.54" fill="#E8D5B3" stroke="#C49A6C" stroke-width="0.7" stroke-linejoin="round" opacity="0.92"/><polygon points="951.84,453.76 918.3,473.13 918.3,513.35 951.84,493.99" fill="#E8D5B3" stroke="#C49A6C" stroke-width="0.7" stroke-linejoin="round" opacity="0.92"/><line x1="599.72" y1="555.95" x2="599.72" y2="381.7" stroke="#8A6440" stroke-width="0.7" stroke-linecap="round" opacity="0.18"/><line x1="618.35" y1="566.71" x2="618.35" y2="392.45" stroke="#8A6440" stroke-width="0.7" stroke-linecap="round" opacity="0.18"/><line x1="636.98" y1="577.46" x2="636.98" y2="403.21" stroke="#8A6440" stroke-width="0.7" stroke-linecap="round" opacity="0.18"/><line x1="655.61" y1="588.22" x2="655.61" y2="413.97" stroke="#8A6440" stroke-width="0.7" stroke-linecap="round" opacity="0.18"/><line x1="674.25" y1="598.97" x2="674.25" y2="424.72" stroke="#8A6440" stroke-width="0.7" stroke-linecap="round" opacity="0.18"/><line x1="692.88" y1="609.73" x2="692.88" y2="435.48" stroke="#8A6440" stroke-width="0.7" stroke-linecap="round" opacity="0.18"/><line x1="711.51" y1="620.49" x2="711.51" y2="446.24" stroke="#8A6440" stroke-width="0.7" stroke-linecap="round" opacity="0.18"/><line x1="730.14" y1="631.24" x2="730.14" y2="456.99" stroke="#8A6440" stroke-width="0.7" stroke-linecap="round" opacity="0.18"/><line x1="748.77" y1="642" x2="748.77" y2="467.75" stroke="#8A6440" stroke-width="0.7" stroke-linecap="round" opacity="0.18"/><line x1="767.4" y1="652.76" x2="767.4" y2="478.5" stroke="#8A6440" stroke-width="0.7" stroke-linecap="round" opacity="0.18"/><line x1="786.03" y1="663.51" x2="786.03" y2="489.26" stroke="#8A6440" stroke-width="0.7" stroke-linecap="round" opacity="0.18"/><line x1="804.66" y1="674.27" x2="804.66" y2="500.02" stroke="#8A6440" stroke-width="0.7" stroke-linecap="round" opacity="0.18"/><line x1="823.29" y1="685.03" x2="823.29" y2="510.77" stroke="#8A6440" stroke-width="0.7" stroke-linecap="round" opacity="0.18"/><line x1="1009.59" y1="598.97" x2="1009.59" y2="424.72" stroke="#8A6440" stroke-width="0.7" stroke-linecap="round" opacity="0.18"/><line x1="990.96" y1="609.73" x2="990.96" y2="435.48" stroke="#8A6440" stroke-width="0.7" stroke-linecap="round" opacity="0.18"/><line x1="972.33" y1="620.49" x2="972.33" y2="446.24" stroke="#8A6440" stroke-width="0.7" stroke-linecap="round" opacity="0.18"/><line x1="953.7" y1="631.24" x2="953.7" y2="456.99" stroke="#8A6440" stroke-width="0.7" stroke-linecap="round" opacity="0.18"/><line x1="935.07" y1="642" x2="935.07" y2="467.75" stroke="#8A6440" stroke-width="0.7" stroke-linecap="round" opacity="0.18"/><line x1="916.44" y1="652.76" x2="916.44" y2="478.5" stroke="#8A6440" stroke-width="0.7" stroke-linecap="round" opacity="0.18"/><line x1="897.81" y1="663.51" x2="897.81" y2="489.26" stroke="#8A6440" stroke-width="0.7" stroke-linecap="round" opacity="0.18"/><line x1="879.18" y1="674.27" x2="879.18" y2="500.02" stroke="#8A6440" stroke-width="0.7" stroke-linecap="round" opacity="0.18"/><line x1="860.55" y1="685.03" x2="860.55" y2="510.77" stroke="#8A6440" stroke-width="0.7" stroke-linecap="round" opacity="0.18"/><g stroke="#1B6A2F" stroke-width="5" stroke-linecap="round" stroke-linejoin="round" fill="none"><line x1="543.83" y1="571.01" x2="804.66" y2="721.6"/><polyline points="788.703313764869,720.4234948391181 804.66,721.6 795.6627529275097,708.3693709478134"/></g><g stroke="#1B6A2F" stroke-width="5" stroke-linecap="round" stroke-linejoin="round" fill="none"><line x1="804.66" y1="721.6" x2="543.83" y2="571.01"/><polyline points="559.786686235131,572.1865051608819 543.83,571.01 552.8272470724903,584.2406290521866"/></g><text x="593.07" y="692.76" font-family="Satoshi, 'Segoe UI', Arial, sans-serif" font-size="54" font-weight="700" fill="#1B6A2F" text-anchor="middle">L</text><g stroke="#1B6A2F" stroke-width="5" stroke-linecap="round" stroke-linejoin="round" fill="none"><line x1="1065.49" y1="614.03" x2="879.18" y2="721.6"/><polyline points="888.1770305841289,708.3692237314567 879.18,721.6 895.1366669823412,720.4232337468043"/></g><g stroke="#1B6A2F" stroke-width="5" stroke-linecap="round" stroke-linejoin="round" fill="none"><line x1="879.18" y1="721.6" x2="1065.49" y2="614.03"/><polyline points="1056.4929694158711,627.2607762685433 1065.49,614.03 1049.5333330176588,615.2067662531957"/></g><text x="1057.24" y="716.42" font-family="Satoshi, 'Segoe UI', Arial, sans-serif" font-size="54" font-weight="700" fill="#1B6A2F" text-anchor="middle">B</text><g stroke="#1B6A2F" stroke-width="5" stroke-linecap="round" stroke-linejoin="round" fill="none"><line x1="525.2" y1="549.5" x2="525.2" y2="366.64"/><polyline points="532.1594485457797,381.0471536376428 525.2,366.64 518.2405514542204,381.0471536376428"/></g><g stroke="#1B6A2F" stroke-width="5" stroke-linecap="round" stroke-linejoin="round" fill="none"><line x1="525.2" y1="366.64" x2="525.2" y2="549.5"/><polyline points="518.2405514542204,535.0928463623571 525.2,549.5 532.1594485457797,535.0928463623571"/></g><text x="486.24" y="453.78" font-family="Satoshi, 'Segoe UI', Arial, sans-serif" font-size="54" font-weight="700" fill="#1B6A2F" text-anchor="middle">H</text>
</svg>
