<svg xmlns="http://www.w3.org/2000/svg" viewBox="0 0 1200 900" width="1200" height="900" role="img" aria-label="Ventilated kraft corrugated box with fresh produce">
<title>Ventilated kraft corrugated box with fresh produce</title>
<defs><filter id="soft" x="-20%" y="-20%" width="140%" height="140%"><feGaussianBlur stdDeviation="14"/></filter><linearGradient id="bg" x1="0" y1="0" x2="0" y2="1"><stop offset="0" stop-color="#FBF8F3"/><stop offset="1" stop-color="#E9E1D3"/></linearGradient></defs>
<rect width="1200" height="900" fill="url(#bg)"/>
<polygon points="500.37,292.53 956.28,555.75 683.69,713.13 227.78,449.91" fill="#17231C" opacity="0.13" filter="url(#soft)"/><polygon points="508.34,256.64 715.57,376.28 761.29,274.5 554.06,154.85" fill="#C49A6C" stroke="#8A6440" stroke-width="1.2" stroke-linejoin="round"/><polygon points="508.34,256.64 348.93,348.67 289.5,216.35 448.91,124.32" fill="#D9BB91" stroke="#8A6440" stroke-width="1.2" stroke-linejoin="round"/><polygon points="508.34,330.27 715.57,449.91 715.57,376.28 508.34,256.64" fill="#B58A5B" stroke="#8A6440" stroke-width="1.2" stroke-linejoin="round"/><polygon points="508.34,330.27 348.93,422.3 348.93,348.67 508.34,256.64" fill="#A47B4F" stroke="#8A6440" stroke-width="1.2" stroke-linejoin="round"/><polygon points="508.34,329.35 715.57,448.99 556.16,541.03 348.93,421.38" fill="#946B42" stroke="none" stroke-width="1.2" stroke-linejoin="round"/><circle cx="532.25" cy="305.42" r="24" fill="#2E9B47" stroke="#17231C" stroke-opacity="0.25" stroke-width="1.2"/><ellipse cx="525.25" cy="297.42" rx="7" ry="4" fill="#fff" opacity="0.28"/><circle cx="588.05" cy="328.42" r="24" fill="#3DBA5A" stroke="#17231C" stroke-opacity="0.25" stroke-width="1.2"/><ellipse cx="581.05" cy="320.42" rx="7" ry="4" fill="#fff" opacity="0.28"/><circle cx="619.93" cy="365.24" r="24" fill="#C6842B" stroke="#17231C" stroke-opacity="0.25" stroke-width="1.2"/><ellipse cx="612.93" cy="357.24" rx="7" ry="4" fill="#fff" opacity="0.28"/><circle cx="500.37" cy="342.23" r="24" fill="#C6842B" stroke="#17231C" stroke-opacity="0.25" stroke-width="1.2"/><ellipse cx="493.37" cy="334.23" rx="7" ry="4" fill="#fff" opacity="0.28"/><circle cx="556.16" cy="374.44" r="24" fill="#2E9B47" stroke="#17231C" stroke-opacity="0.25" stroke-width="1.2"/><ellipse cx="549.16" cy="366.44" rx="7" ry="4" fill="#fff" opacity="0.28"/><circle cx="611.96" cy="397.45" r="24" fill="#3DBA5A" stroke="#17231C" stroke-opacity="0.25" stroke-width="1.2"/><ellipse cx="604.96" cy="389.45" rx="7" ry="4" fill="#fff" opacity="0.28"/><polygon points="348.93,422.3 556.16,541.95 556.16,468.32 348.93,348.67" fill="#C49A6C" stroke="#8A6440" stroke-width="1.2" stroke-linejoin="round"/><polygon points="715.57,449.91 556.16,541.95 556.16,468.32 715.57,376.28" fill="#A97F52" stroke="#8A6440" stroke-width="1.2" stroke-linejoin="round"/><polygon points="348.93,348.67 556.16,468.32 487.14,554.19 279.9,434.54" fill="#D9BB91" stroke="#8A6440" stroke-width="1.2" stroke-linejoin="round"/><polygon points="715.57,376.28 556.16,468.32 645.9,579.95 805.31,487.91" fill="#C49A6C" stroke="#8A6440" stroke-width="1.2" stroke-linejoin="round"/><ellipse cx="386.23" cy="403.34" rx="9" ry="12" transform="rotate(-30 386.23 403.34)" fill="#5E4228" opacity="0.55"/><ellipse cx="431.82" cy="429.66" rx="9" ry="12" transform="rotate(-30 431.82 429.66)" fill="#5E4228" opacity="0.55"/><ellipse cx="477.42" cy="455.99" rx="9" ry="12" transform="rotate(-30 477.42 455.99)" fill="#5E4228" opacity="0.55"/><ellipse cx="523.01" cy="482.31" rx="9" ry="12" transform="rotate(-30 523.01 482.31)" fill="#5E4228" opacity="0.55"/><polygon points="524.28,578.76 691.66,675.4 691.66,601.77 524.28,505.13" fill="#C49A6C" stroke="#8A6440" stroke-width="1.2" stroke-linejoin="round"/><polygon points="827.16,597.17 691.66,675.4 691.66,601.77 827.16,523.54" fill="#A97F52" stroke="#8A6440" stroke-width="1.2" stroke-linejoin="round"/><polygon points="659.78,426.9 827.16,523.54 691.66,601.77 524.28,505.13" fill="#D9BB91" stroke="#8A6440" stroke-width="1.2" stroke-linejoin="round"/><ellipse cx="554.41" cy="555.66" rx="9" ry="12" transform="rotate(-30 554.41 555.66)" fill="#5E4228" opacity="0.55"/><ellipse cx="591.23" cy="576.92" rx="9" ry="12" transform="rotate(-30 591.23 576.92)" fill="#5E4228" opacity="0.55"/><ellipse cx="628.06" cy="598.18" rx="9" ry="12" transform="rotate(-30 628.06 598.18)" fill="#5E4228" opacity="0.55"/><ellipse cx="664.88" cy="619.44" rx="9" ry="12" transform="rotate(-30 664.88 619.44)" fill="#5E4228" opacity="0.55"/><line x1="538.23" y1="583.13" x2="538.23" y2="516.87" stroke="#8A6440" stroke-width="0.7" stroke-linecap="round" opacity="0.18"/><line x1="552.18" y1="591.19" x2="552.18" y2="524.92" stroke="#8A6440" stroke-width="0.7" stroke-linecap="round" opacity="0.18"/><line x1="566.13" y1="599.24" x2="566.13" y2="532.97" stroke="#8A6440" stroke-width="0.7" stroke-linecap="round" opacity="0.18"/><line x1="580.08" y1="607.29" x2="580.08" y2="541.03" stroke="#8A6440" stroke-width="0.7" stroke-linecap="round" opacity="0.18"/><line x1="594.02" y1="615.35" x2="594.02" y2="549.08" stroke="#8A6440" stroke-width="0.7" stroke-linecap="round" opacity="0.18"/><line x1="607.97" y1="623.4" x2="607.97" y2="557.13" stroke="#8A6440" stroke-width="0.7" stroke-linecap="round" opacity="0.18"/><line x1="621.92" y1="631.45" x2="621.92" y2="565.19" stroke="#8A6440" stroke-width="0.7" stroke-linecap="round" opacity="0.18"/><line x1="635.87" y1="639.5" x2="635.87" y2="573.24" stroke="#8A6440" stroke-width="0.7" stroke-linecap="round" opacity="0.18"/><line x1="649.82" y1="647.56" x2="649.82" y2="581.29" stroke="#8A6440" stroke-width="0.7" stroke-linecap="round" opacity="0.18"/><line x1="663.77" y1="655.61" x2="663.77" y2="589.35" stroke="#8A6440" stroke-width="0.7" stroke-linecap="round" opacity="0.18"/><line x1="677.71" y1="663.66" x2="677.71" y2="597.4" stroke="#8A6440" stroke-width="0.7" stroke-linecap="round" opacity="0.18"/><line x1="813.61" y1="601.31" x2="813.61" y2="535.04" stroke="#8A6440" stroke-width="0.7" stroke-linecap="round" opacity="0.18"/><line x1="800.06" y1="609.13" x2="800.06" y2="542.87" stroke="#8A6440" stroke-width="0.7" stroke-linecap="round" opacity="0.18"/><line x1="786.51" y1="616.96" x2="786.51" y2="550.69" stroke="#8A6440" stroke-width="0.7" stroke-linecap="round" opacity="0.18"/><line x1="772.96" y1="624.78" x2="772.96" y2="558.51" stroke="#8A6440" stroke-width="0.7" stroke-linecap="round" opacity="0.18"/><line x1="759.41" y1="632.6" x2="759.41" y2="566.34" stroke="#8A6440" stroke-width="0.7" stroke-linecap="round" opacity="0.18"/><line x1="745.86" y1="640.42" x2="745.86" y2="574.16" stroke="#8A6440" stroke-width="0.7" stroke-linecap="round" opacity="0.18"/><line x1="732.31" y1="648.25" x2="732.31" y2="581.98" stroke="#8A6440" stroke-width="0.7" stroke-linecap="round" opacity="0.18"/><line x1="718.76" y1="656.07" x2="718.76" y2="589.81" stroke="#8A6440" stroke-width="0.7" stroke-linecap="round" opacity="0.18"/><line x1="705.21" y1="663.89" x2="705.21" y2="597.63" stroke="#8A6440" stroke-width="0.7" stroke-linecap="round" opacity="0.18"/>
</svg>
