<svg xmlns="http://www.w3.org/2000/svg" viewBox="0 0 1200 900" width="1200" height="900" role="img" aria-label="Heavy-duty carton on a pallet with a gear part marking and corner protectors">
<title>Heavy-duty carton on a pallet with a gear part marking and corner protectors</title>
<defs><filter id="soft" x="-20%" y="-20%" width="140%" height="140%"><feGaussianBlur stdDeviation="14"/></filter><linearGradient id="bg" x1="0" y1="0" x2="0" y2="1"><stop offset="0" stop-color="#FBF8F3"/><stop offset="1" stop-color="#E9E1D3"/></linearGradient></defs>
<rect width="1200" height="900" fill="url(#bg)"/>
<polygon points="574.51,362.11 904.19,552.45 625.49,713.36 295.81,523.02" fill="#17231C" opacity="0.13" filter="url(#soft)"/><polygon points="562.61,402.34 834.51,559.32 834.51,541.66 562.61,384.68" fill="#B58A55" stroke="#5E4228" stroke-width="0.9" stroke-linejoin="round"/><polygon points="846.41,552.45 834.51,559.32 834.51,541.66 846.41,534.79" fill="#9C7343" stroke="#5E4228" stroke-width="0.9" stroke-linejoin="round"/><polygon points="574.51,377.81 846.41,534.79 834.51,541.66 562.61,384.68" fill="#C9A06B" stroke="#5E4228" stroke-width="0.9" stroke-linejoin="round"/><polygon points="458.1,462.68 730,619.66 730,602 458.1,445.02" fill="#B58A55" stroke="#5E4228" stroke-width="0.9" stroke-linejoin="round"/><polygon points="741.9,612.79 730,619.66 730,602 741.9,595.13" fill="#9C7343" stroke="#5E4228" stroke-width="0.9" stroke-linejoin="round"/><polygon points="470,438.15 741.9,595.13 730,602 458.1,445.02" fill="#C9A06B" stroke="#5E4228" stroke-width="0.9" stroke-linejoin="round"/><polygon points="353.59,523.02 625.49,680 625.49,662.34 353.59,505.36" fill="#B58A55" stroke="#5E4228" stroke-width="0.9" stroke-linejoin="round"/><polygon points="637.39,673.13 625.49,680 625.49,662.34 637.39,655.47" fill="#9C7343" stroke="#5E4228" stroke-width="0.9" stroke-linejoin="round"/><polygon points="365.49,498.49 637.39,655.47 625.49,662.34 353.59,505.36" fill="#C9A06B" stroke="#5E4228" stroke-width="0.9" stroke-linejoin="round"/><polygon points="353.59,505.36 404.57,534.79 404.57,525.96 353.59,496.53" fill="#B58A55" stroke="#5E4228" stroke-width="0.9" stroke-linejoin="round"/><polygon points="625.49,407.25 404.57,534.79 404.57,525.96 625.49,398.42" fill="#9C7343" stroke="#5E4228" stroke-width="0.9" stroke-linejoin="round"/><polygon points="574.51,368.98 625.49,398.42 404.57,525.96 353.59,496.53" fill="#C9A06B" stroke="#5E4228" stroke-width="0.9" stroke-linejoin="round"/><polygon points="408.82,537.25 459.8,566.68 459.8,557.85 408.82,528.42" fill="#B58A55" stroke="#5E4228" stroke-width="0.9" stroke-linejoin="round"/><polygon points="680.72,439.13 459.8,566.68 459.8,557.85 680.72,430.3" fill="#9C7343" stroke="#5E4228" stroke-width="0.9" stroke-linejoin="round"/><polygon points="629.74,400.87 680.72,430.3 459.8,557.85 408.82,528.42" fill="#C9A06B" stroke="#5E4228" stroke-width="0.9" stroke-linejoin="round"/><polygon points="464.05,569.13 515.03,598.57 515.03,589.74 464.05,560.3" fill="#B58A55" stroke="#5E4228" stroke-width="0.9" stroke-linejoin="round"/><polygon points="735.95,471.02 515.03,598.57 515.03,589.74 735.95,462.19" fill="#9C7343" stroke="#5E4228" stroke-width="0.9" stroke-linejoin="round"/><polygon points="684.97,432.75 735.95,462.19 515.03,589.74 464.05,560.3" fill="#C9A06B" stroke="#5E4228" stroke-width="0.9" stroke-linejoin="round"/><polygon points="519.28,601.02 570.26,630.45 570.26,621.62 519.28,592.19" fill="#B58A55" stroke="#5E4228" stroke-width="0.9" stroke-linejoin="round"/><polygon points="791.18,502.91 570.26,630.45 570.26,621.62 791.18,494.08" fill="#9C7343" stroke="#5E4228" stroke-width="0.9" stroke-linejoin="round"/><polygon points="740.2,464.64 791.18,494.08 570.26,621.62 519.28,592.19" fill="#C9A06B" stroke="#5E4228" stroke-width="0.9" stroke-linejoin="round"/><polygon points="574.51,632.91 625.49,662.34 625.49,653.51 574.51,624.08" fill="#B58A55" stroke="#5E4228" stroke-width="0.9" stroke-linejoin="round"/><polygon points="846.41,534.79 625.49,662.34 625.49,653.51 846.41,525.96" fill="#9C7343" stroke="#5E4228" stroke-width="0.9" stroke-linejoin="round"/><polygon points="795.43,496.53 846.41,525.96 625.49,653.51 574.51,624.08" fill="#C9A06B" stroke="#5E4228" stroke-width="0.9" stroke-linejoin="round"/><polygon points="367.19,496.53 625.49,645.66 625.49,449.43 367.19,300.3" fill="#C49A6C" stroke="#8A6440" stroke-width="1.2" stroke-linejoin="round"/><polygon points="832.81,525.96 625.49,645.66 625.49,449.43 832.81,329.74" fill="#A97F52" stroke="#8A6440" stroke-width="1.2" stroke-linejoin="round"/><polygon points="574.51,180.6 832.81,329.74 625.49,449.43 367.19,300.3" fill="#D9BB91" stroke="#8A6440" stroke-width="1.2" stroke-linejoin="round"/><line x1="470.85" y1="240.45" x2="729.15" y2="389.58" stroke="#8A6440" stroke-width="1.08" stroke-linecap="round" opacity="0.7"/><polygon points="489.51,229.68 747.81,378.81 710.49,400.36 452.19,251.23" fill="#E8D5B3" stroke="#C49A6C" stroke-width="0.7" stroke-linejoin="round" opacity="0.92"/><polygon points="747.81,378.81 710.49,400.36 710.49,443.53 747.81,421.98" fill="#E8D5B3" stroke="#C49A6C" stroke-width="0.7" stroke-linejoin="round" opacity="0.92"/><line x1="381.54" y1="500.89" x2="381.54" y2="312.51" stroke="#8A6440" stroke-width="0.7" stroke-linecap="round" opacity="0.14"/><line x1="395.89" y1="509.17" x2="395.89" y2="320.8" stroke="#8A6440" stroke-width="0.7" stroke-linecap="round" opacity="0.14"/><line x1="410.24" y1="517.46" x2="410.24" y2="329.08" stroke="#8A6440" stroke-width="0.7" stroke-linecap="round" opacity="0.14"/><line x1="424.59" y1="525.74" x2="424.59" y2="337.37" stroke="#8A6440" stroke-width="0.7" stroke-linecap="round" opacity="0.14"/><line x1="438.94" y1="534.03" x2="438.94" y2="345.65" stroke="#8A6440" stroke-width="0.7" stroke-linecap="round" opacity="0.14"/><line x1="453.29" y1="542.31" x2="453.29" y2="353.94" stroke="#8A6440" stroke-width="0.7" stroke-linecap="round" opacity="0.14"/><line x1="467.64" y1="550.6" x2="467.64" y2="362.22" stroke="#8A6440" stroke-width="0.7" stroke-linecap="round" opacity="0.14"/><line x1="481.99" y1="558.88" x2="481.99" y2="370.51" stroke="#8A6440" stroke-width="0.7" stroke-linecap="round" opacity="0.14"/><line x1="496.34" y1="567.17" x2="496.34" y2="378.79" stroke="#8A6440" stroke-width="0.7" stroke-linecap="round" opacity="0.14"/><line x1="510.69" y1="575.45" x2="510.69" y2="387.08" stroke="#8A6440" stroke-width="0.7" stroke-linecap="round" opacity="0.14"/><line x1="525.04" y1="583.74" x2="525.04" y2="395.36" stroke="#8A6440" stroke-width="0.7" stroke-linecap="round" opacity="0.14"/><line x1="539.39" y1="592.03" x2="539.39" y2="403.65" stroke="#8A6440" stroke-width="0.7" stroke-linecap="round" opacity="0.14"/><line x1="553.74" y1="600.31" x2="553.74" y2="411.93" stroke="#8A6440" stroke-width="0.7" stroke-linecap="round" opacity="0.14"/><line x1="568.09" y1="608.6" x2="568.09" y2="420.22" stroke="#8A6440" stroke-width="0.7" stroke-linecap="round" opacity="0.14"/><line x1="582.44" y1="616.88" x2="582.44" y2="428.5" stroke="#8A6440" stroke-width="0.7" stroke-linecap="round" opacity="0.14"/><line x1="596.79" y1="625.17" x2="596.79" y2="436.79" stroke="#8A6440" stroke-width="0.7" stroke-linecap="round" opacity="0.14"/><line x1="611.14" y1="633.45" x2="611.14" y2="445.07" stroke="#8A6440" stroke-width="0.7" stroke-linecap="round" opacity="0.14"/><line x1="818.01" y1="530.59" x2="818.01" y2="342.21" stroke="#8A6440" stroke-width="0.7" stroke-linecap="round" opacity="0.14"/><line x1="803.2" y1="539.14" x2="803.2" y2="350.76" stroke="#8A6440" stroke-width="0.7" stroke-linecap="round" opacity="0.14"/><line x1="788.39" y1="547.69" x2="788.39" y2="359.31" stroke="#8A6440" stroke-width="0.7" stroke-linecap="round" opacity="0.14"/><line x1="773.58" y1="556.24" x2="773.58" y2="367.86" stroke="#8A6440" stroke-width="0.7" stroke-linecap="round" opacity="0.14"/><line x1="758.77" y1="564.79" x2="758.77" y2="376.41" stroke="#8A6440" stroke-width="0.7" stroke-linecap="round" opacity="0.14"/><line x1="743.96" y1="573.34" x2="743.96" y2="384.96" stroke="#8A6440" stroke-width="0.7" stroke-linecap="round" opacity="0.14"/><line x1="729.15" y1="581.89" x2="729.15" y2="393.51" stroke="#8A6440" stroke-width="0.7" stroke-linecap="round" opacity="0.14"/><line x1="714.34" y1="590.44" x2="714.34" y2="402.06" stroke="#8A6440" stroke-width="0.7" stroke-linecap="round" opacity="0.14"/><line x1="699.54" y1="598.99" x2="699.54" y2="410.61" stroke="#8A6440" stroke-width="0.7" stroke-linecap="round" opacity="0.14"/><line x1="684.73" y1="607.54" x2="684.73" y2="419.16" stroke="#8A6440" stroke-width="0.7" stroke-linecap="round" opacity="0.14"/><line x1="669.92" y1="616.09" x2="669.92" y2="427.71" stroke="#8A6440" stroke-width="0.7" stroke-linecap="round" opacity="0.14"/><line x1="655.11" y1="624.64" x2="655.11" y2="436.26" stroke="#8A6440" stroke-width="0.7" stroke-linecap="round" opacity="0.14"/><line x1="640.3" y1="633.19" x2="640.3" y2="444.81" stroke="#8A6440" stroke-width="0.7" stroke-linecap="round" opacity="0.14"/><g transform="translate(496.34 472.98) matrix(0.866 0.5 0 -1 0 0)"><circle r="46" fill="none" stroke="#17231C" stroke-width="19.32" stroke-dasharray="10.928815443675493 10.928815443675493"/><circle r="37.72" fill="#17231C"/><circle r="16.56" fill="#F4EFE6"/></g><polygon points="615.3,639.77 625.49,645.66 625.49,449.43 615.3,443.55" fill="#4A5A50" stroke="#17231C" stroke-width="0.8" stroke-linejoin="round"/><polygon points="635.69,639.77 625.49,645.66 625.49,449.43 635.69,443.55" fill="#17231C" stroke="#17231C" stroke-width="0.8" stroke-linejoin="round"/><polygon points="625.49,437.66 635.69,443.55 625.49,449.43 615.3,443.55" fill="#4A5A50" stroke="#17231C" stroke-width="0.8" stroke-linejoin="round"/>
</svg>
