<svg xmlns="http://www.w3.org/2000/svg" viewBox="0 0 1200 900" width="1200" height="900" role="img" aria-label="Dieline of a regular slotted carton with length, breadth and height marked">
<title>Dieline of a regular slotted carton with length, breadth and height marked</title>
<defs><filter id="soft" x="-20%" y="-20%" width="140%" height="140%"><feGaussianBlur stdDeviation="14"/></filter><linearGradient id="bg" x1="0" y1="0" x2="0" y2="1"><stop offset="0" stop-color="#FBF8F3"/><stop offset="1" stop-color="#E9E1D3"/></linearGradient></defs>
<rect width="1200" height="900" fill="url(#bg)"/>
<rect x="60" y="120" width="1080" height="700" rx="18" fill="#FBF8F3" stroke="#DCD1BD" stroke-width="2"/><line x1="60" y1="120" x2="60" y2="820" stroke="#E9E1D3" stroke-width="1"/><line x1="100" y1="120" x2="100" y2="820" stroke="#E9E1D3" stroke-width="1"/><line x1="140" y1="120" x2="140" y2="820" stroke="#E9E1D3" stroke-width="1"/><line x1="180" y1="120" x2="180" y2="820" stroke="#E9E1D3" stroke-width="1"/><line x1="220" y1="120" x2="220" y2="820" stroke="#E9E1D3" stroke-width="1"/><line x1="260" y1="120" x2="260" y2="820" stroke="#E9E1D3" stroke-width="1"/><line x1="300" y1="120" x2="300" y2="820" stroke="#E9E1D3" stroke-width="1"/><line x1="340" y1="120" x2="340" y2="820" stroke="#E9E1D3" stroke-width="1"/><line x1="380" y1="120" x2="380" y2="820" stroke="#E9E1D3" stroke-width="1"/><line x1="420" y1="120" x2="420" y2="820" stroke="#E9E1D3" stroke-width="1"/><line x1="460" y1="120" x2="460" y2="820" stroke="#E9E1D3" stroke-width="1"/><line x1="500" y1="120" x2="500" y2="820" stroke="#E9E1D3" stroke-width="1"/><line x1="540" y1="120" x2="540" y2="820" stroke="#E9E1D3" stroke-width="1"/><line x1="580" y1="120" x2="580" y2="820" stroke="#E9E1D3" stroke-width="1"/><line x1="620" y1="120" x2="620" y2="820" stroke="#E9E1D3" stroke-width="1"/><line x1="660" y1="120" x2="660" y2="820" stroke="#E9E1D3" stroke-width="1"/><line x1="700" y1="120" x2="700" y2="820" stroke="#E9E1D3" stroke-width="1"/><line x1="740" y1="120" x2="740" y2="820" stroke="#E9E1D3" stroke-width="1"/><line x1="780" y1="120" x2="780" y2="820" stroke="#E9E1D3" stroke-width="1"/><line x1="820" y1="120" x2="820" y2="820" stroke="#E9E1D3" stroke-width="1"/><line x1="860" y1="120" x2="860" y2="820" stroke="#E9E1D3" stroke-width="1"/><line x1="900" y1="120" x2="900" y2="820" stroke="#E9E1D3" stroke-width="1"/><line x1="940" y1="120" x2="940" y2="820" stroke="#E9E1D3" stroke-width="1"/><line x1="980" y1="120" x2="980" y2="820" stroke="#E9E1D3" stroke-width="1"/><line x1="1020" y1="120" x2="1020" y2="820" stroke="#E9E1D3" stroke-width="1"/><line x1="1060" y1="120" x2="1060" y2="820" stroke="#E9E1D3" stroke-width="1"/><line x1="1100" y1="120" x2="1100" y2="820" stroke="#E9E1D3" stroke-width="1"/><line x1="1140" y1="120" x2="1140" y2="820" stroke="#E9E1D3" stroke-width="1"/><line x1="60" y1="120" x2="1140" y2="120" stroke="#E9E1D3" stroke-width="1"/><line x1="60" y1="160" x2="1140" y2="160" stroke="#E9E1D3" stroke-width="1"/><line x1="60" y1="200" x2="1140" y2="200" stroke="#E9E1D3" stroke-width="1"/><line x1="60" y1="240" x2="1140" y2="240" stroke="#E9E1D3" stroke-width="1"/><line x1="60" y1="280" x2="1140" y2="280" stroke="#E9E1D3" stroke-width="1"/><line x1="60" y1="320" x2="1140" y2="320" stroke="#E9E1D3" stroke-width="1"/><line x1="60" y1="360" x2="1140" y2="360" stroke="#E9E1D3" stroke-width="1"/><line x1="60" y1="400" x2="1140" y2="400" stroke="#E9E1D3" stroke-width="1"/><line x1="60" y1="440" x2="1140" y2="440" stroke="#E9E1D3" stroke-width="1"/><line x1="60" y1="480" x2="1140" y2="480" stroke="#E9E1D3" stroke-width="1"/><line x1="60" y1="520" x2="1140" y2="520" stroke="#E9E1D3" stroke-width="1"/><line x1="60" y1="560" x2="1140" y2="560" stroke="#E9E1D3" stroke-width="1"/><line x1="60" y1="600" x2="1140" y2="600" stroke="#E9E1D3" stroke-width="1"/><line x1="60" y1="640" x2="1140" y2="640" stroke="#E9E1D3" stroke-width="1"/><line x1="60" y1="680" x2="1140" y2="680" stroke="#E9E1D3" stroke-width="1"/><line x1="60" y1="720" x2="1140" y2="720" stroke="#E9E1D3" stroke-width="1"/><line x1="60" y1="760" x2="1140" y2="760" stroke="#E9E1D3" stroke-width="1"/><line x1="60" y1="800" x2="1140" y2="800" stroke="#E9E1D3" stroke-width="1"/><rect x="150" y="330" width="270" height="215" fill="#D9BB91" stroke="#17231C" stroke-width="2.5"/><rect x="420" y="330" width="170" height="215" fill="#D9BB91" stroke="#17231C" stroke-width="2.5"/><rect x="590" y="330" width="270" height="215" fill="#D9BB91" stroke="#17231C" stroke-width="2.5"/><rect x="860" y="330" width="170" height="215" fill="#D9BB91" stroke="#17231C" stroke-width="2.5"/><polygon points="150,340 100,358 100,517 150,535" fill="#C49A6C" stroke="#17231C" stroke-width="2.5"/><rect x="150" y="245" width="270" height="85" fill="#C49A6C" stroke="#17231C" stroke-width="2.5"/><rect x="150" y="545" width="270" height="85" fill="#C49A6C" stroke="#17231C" stroke-width="2.5"/><rect x="420" y="245" width="170" height="85" fill="#C49A6C" stroke="#17231C" stroke-width="2.5"/><rect x="420" y="545" width="170" height="85" fill="#C49A6C" stroke="#17231C" stroke-width="2.5"/><rect x="590" y="245" width="270" height="85" fill="#C49A6C" stroke="#17231C" stroke-width="2.5"/><rect x="590" y="545" width="270" height="85" fill="#C49A6C" stroke="#17231C" stroke-width="2.5"/><rect x="860" y="245" width="170" height="85" fill="#C49A6C" stroke="#17231C" stroke-width="2.5"/><rect x="860" y="545" width="170" height="85" fill="#C49A6C" stroke="#17231C" stroke-width="2.5"/><line x1="150" y1="330" x2="1030" y2="330" stroke="#1B6A2F" stroke-width="2.5" stroke-dasharray="3 7" stroke-linecap="round"/><line x1="150" y1="545" x2="1030" y2="545" stroke="#1B6A2F" stroke-width="2.5" stroke-dasharray="3 7" stroke-linecap="round"/><line x1="420" y1="245" x2="420" y2="630" stroke="#1B6A2F" stroke-width="2.5" stroke-dasharray="3 7" stroke-linecap="round"/><line x1="590" y1="245" x2="590" y2="630" stroke="#1B6A2F" stroke-width="2.5" stroke-dasharray="3 7" stroke-linecap="round"/><line x1="860" y1="245" x2="860" y2="630" stroke="#1B6A2F" stroke-width="2.5" stroke-dasharray="3 7" stroke-linecap="round"/><g stroke="#1B6A2F" stroke-width="2.5" fill="none" stroke-linecap="round"><line x1="150" y1="207" x2="420" y2="207"/><line x1="150" y1="199" x2="150" y2="215"/><line x1="420" y1="199" x2="420" y2="215"/></g><text x="285" y="195" font-family="Satoshi, 'Segoe UI', Arial, sans-serif" font-size="34" font-weight="700" fill="#1B6A2F" text-anchor="middle">L</text><g stroke="#1B6A2F" stroke-width="2.5" fill="none" stroke-linecap="round"><line x1="420" y1="207" x2="590" y2="207"/><line x1="420" y1="199" x2="420" y2="215"/><line x1="590" y1="199" x2="590" y2="215"/></g><text x="505" y="195" font-family="Satoshi, 'Segoe UI', Arial, sans-serif" font-size="34" font-weight="700" fill="#1B6A2F" text-anchor="middle">B</text><g stroke="#1B6A2F" stroke-width="2.5" fill="none" stroke-linecap="round"><line x1="1082" y1="330" x2="1082" y2="545"/><line x1="1074" y1="330" x2="1090" y2="330"/><line x1="1074" y1="545" x2="1090" y2="545"/></g><text x="1110" y="449.5" font-family="Satoshi, 'Segoe UI', Arial, sans-serif" font-size="34" font-weight="700" fill="#1B6A2F">H</text>
</svg>
