<svg xmlns="http://www.w3.org/2000/svg" viewBox="0 0 1200 900" width="1200" height="900" role="img" aria-label="Compression tester crushing a corrugated carton, with a dial gauge">
<title>Compression tester crushing a corrugated carton, with a dial gauge</title>
<defs><filter id="soft" x="-20%" y="-20%" width="140%" height="140%"><feGaussianBlur stdDeviation="14"/></filter><linearGradient id="bg" x1="0" y1="0" x2="0" y2="1"><stop offset="0" stop-color="#FBF8F3"/><stop offset="1" stop-color="#E9E1D3"/></linearGradient></defs>
<rect width="1200" height="900" fill="url(#bg)"/>
<ellipse cx="600" cy="780" rx="400" ry="30" fill="#17231C" opacity="0.12" filter="url(#soft)"/><rect x="250" y="700" width="560" height="60" rx="8" fill="#4A5A50" stroke="#17231C" stroke-width="3"/><rect x="290" y="210" width="34" height="500" fill="#8FA39A" stroke="#17231C" stroke-width="3"/><rect x="736" y="210" width="34" height="500" fill="#8FA39A" stroke="#17231C" stroke-width="3"/><rect x="260" y="170" width="540" height="56" rx="8" fill="#4A5A50" stroke="#17231C" stroke-width="3"/><rect x="515" y="226" width="30" height="130" fill="#C9D1CC" stroke="#17231C" stroke-width="3"/><rect x="340" y="356" width="380" height="36" rx="6" fill="#9AA79F" stroke="#17231C" stroke-width="3"/><rect x="380" y="392" width="300" height="236" fill="#D9BB91" stroke="#8A6440" stroke-width="3"/><line x1="380" y1="510" x2="680" y2="510" stroke="#8A6440" stroke-opacity="0.4" stroke-width="2"/><path d="M 380 392 L 400 380 L 700 380 L 680 392" fill="#E8D5B3" stroke="#8A6440" stroke-width="2"/><rect x="340" y="628" width="380" height="40" rx="6" fill="#9AA79F" stroke="#17231C" stroke-width="3"/><g stroke="#23803A" stroke-width="7" stroke-linecap="round" stroke-linejoin="round" fill="none"><path d="M 360 300 L 360 346 M 346 332 L 360 346 L 374 332"/><path d="M 700 300 L 700 346 M 686 332 L 700 346 L 714 332"/></g><circle cx="950" cy="330" r="110" fill="#FBF8F3" stroke="#17231C" stroke-width="5"/><circle cx="950" cy="330" r="92" fill="none" stroke="#17231C" stroke-opacity="0.3" stroke-width="2"/><line x1="889.3782217350893" y1="365" x2="872.0577136594005" y2="375" stroke="#17231C" stroke-width="3"/><line x1="875.817591728978" y1="354.10332556124587" x2="864.4049135334362" y2="357.81152949374524" stroke="#17231C" stroke-width="1.5"/><line x1="872.4272921612746" y1="338.15322013487696" x2="860.4930294168554" y2="339.4075616940888" stroke="#17231C" stroke-width="1.5"/><line x1="872.4272921612746" y1="321.846779865123" x2="860.4930294168554" y2="320.5924383059112" stroke="#17231C" stroke-width="1.5"/><line x1="875.8175917289781" y1="305.8966744387541" x2="864.4049135334362" y2="302.1884705062547" stroke="#17231C" stroke-width="1.5"/><line x1="889.3782217350893" y1="295" x2="872.0577136594005" y2="285" stroke="#17231C" stroke-width="3"/><line x1="892.0347036127632" y1="277.80781270400905" x2="883.1169657070345" y2="269.77824542770276" stroke="#17231C" stroke-width="1.5"/><line x1="904.1527503211871" y1="266.8966744387541" x2="897.0993272936774" y2="257.1884705062547" stroke="#17231C" stroke-width="1.5"/><line x1="918.2745418400875" y1="258.7434543038771" x2="913.393702123178" y2="247.78090881216593" stroke="#17231C" stroke-width="1.5"/><line x1="933.7828881162147" y1="253.70448714276316" x2="931.2879478264017" y2="241.9667159339575" stroke="#17231C" stroke-width="1.5"/><line x1="950" y1="260" x2="950" y2="240" stroke="#17231C" stroke-width="3"/><line x1="966.2171118837853" y1="253.70448714276318" x2="968.7120521735983" y2="241.96671593395752" stroke="#17231C" stroke-width="1.5"/><line x1="981.7254581599124" y1="258.7434543038771" x2="986.606297876822" y2="247.78090881216593" stroke="#17231C" stroke-width="1.5"/><line x1="995.8472496788129" y1="266.8966744387541" x2="1002.9006727063226" y2="257.1884705062547" stroke="#17231C" stroke-width="1.5"/><line x1="1007.9652963872368" y1="277.80781270400905" x2="1016.8830342929655" y2="269.77824542770276" stroke="#17231C" stroke-width="1.5"/><line x1="1010.6217782649107" y1="295" x2="1027.9422863405994" y2="285" stroke="#17231C" stroke-width="3"/><line x1="1024.182408271022" y1="305.8966744387541" x2="1035.5950864665638" y2="302.18847050625476" stroke="#17231C" stroke-width="1.5"/><line x1="1027.5727078387254" y1="321.84677986512304" x2="1039.5069705831445" y2="320.5924383059112" stroke="#17231C" stroke-width="1.5"/><line x1="1027.5727078387254" y1="338.15322013487696" x2="1039.5069705831445" y2="339.4075616940888" stroke="#17231C" stroke-width="1.5"/><line x1="1024.182408271022" y1="354.1033255612459" x2="1035.5950864665638" y2="357.81152949374524" stroke="#17231C" stroke-width="1.5"/><line x1="1010.6217782649107" y1="365" x2="1027.9422863405994" y2="375" stroke="#17231C" stroke-width="3"/><line x1="950" y1="330" x2="1004" y2="276" stroke="#23803A" stroke-width="6" stroke-linecap="round"/><circle cx="950" cy="330" r="10" fill="#17231C"/><path d="M 800 200 C 860 200, 880 260, 880 300" fill="none" stroke="#17231C" stroke-width="5" stroke-linecap="round" stroke-opacity="0.5"/>
</svg>
